<svg xmlns="http://www.w3.org/2000/svg" width="30" height="30" viewBox="0 0 30 30">
  <defs>
    <style>
      .cls-1 {
        fill: #b2b2b2;
        fill-rule: evenodd;
      }
    </style>
  </defs>
  <path id="dribbble" class="cls-1" d="M1305.12,6139.37a15,15,0,1,0,15,15A15.005,15.005,0,0,0,1305.12,6139.37Zm0,27.66a12.655,12.655,0,1,1,12.66-12.66A12.654,12.654,0,0,1,1305.12,6167.03Zm0-20.16a7.5,7.5,0,1,0,7.5,7.5A7.509,7.509,0,0,0,1305.12,6146.87Zm4.6,3.89a5.843,5.843,0,0,1,1.25,3.34,11.593,11.593,0,0,0-2.39-.27h-0.01a10.023,10.023,0,0,0-1.69.15c-0.13-.32-0.26-0.62-0.4-0.91A9.079,9.079,0,0,0,1309.72,6150.76Zm-4.6-2.24a5.813,5.813,0,0,1,3.65,1.29,7.536,7.536,0,0,1-2.87,2.05,20.838,20.838,0,0,0-2.02-3.2A6.365,6.365,0,0,1,1305.12,6148.52Zm-2.58.61a17.853,17.853,0,0,1,2.09,3.19,17.124,17.124,0,0,1-4.62.64h-0.56A5.9,5.9,0,0,1,1302.54,6149.13Zm-3.27,5.24a0.249,0.249,0,0,1,.01-0.08c0.16,0.01.38,0.01,0.64,0.01h0a18.382,18.382,0,0,0,5.31-.76c0.11,0.25.22,0.51,0.33,0.77a9.288,9.288,0,0,0-3.29,1.95,9.617,9.617,0,0,0-1.61,1.88A5.775,5.775,0,0,1,1299.27,6154.37Zm5.85,5.86a5.747,5.747,0,0,1-3.47-1.16,8.609,8.609,0,0,1,1.36-1.67,8.024,8.024,0,0,1,3.04-1.84,30.219,30.219,0,0,1,1.15,4.28A5.739,5.739,0,0,1,1305.12,6160.23Zm3.32-1.04a30.242,30.242,0,0,0-1.08-3.93,7.691,7.691,0,0,1,1.2-.09h0.01a10.357,10.357,0,0,1,2.3.28A5.861,5.861,0,0,1,1308.44,6159.19Z" transform="translate(-1290.13 -6139.38)"/>
</svg>
