<svg xmlns="http://www.w3.org/2000/svg" width="31" height="31" viewBox="0 0 31 31">
  <defs>
    <style>
      .cls-1 {
        fill: #b2b2b2;
        fill-rule: evenodd;
      }
    </style>
  </defs>
  <path id="facebook" class="cls-1" d="M1125.5,6139a15.5,15.5,0,1,0,15.5,15.5A15.5,15.5,0,0,0,1125.5,6139Zm0,28.58a13.08,13.08,0,1,1,13.08-13.08A13.085,13.085,0,0,1,1125.5,6167.58Zm3.68-15.45h-2.7v-1.97a0.833,0.833,0,0,1,.92-0.74h1.74v-2.66l-2-.01a3.056,3.056,0,0,0-3.34,3.25v2.13h-1.98v2.73h1.98v7.39h2.68v-7.39h2.28Z" transform="translate(-1110 -6139)"/>
</svg>
