<svg xmlns="http://www.w3.org/2000/svg" width="30.84" height="30.84" viewBox="0 0 30.84 30.84">
  <defs>
    <style>
      .cls-1 {
        fill: #b2b2b2;
        fill-rule: evenodd;
      }
    </style>
  </defs>
  <path id="google" class="cls-1" d="M1215.42,6138.67a15.415,15.415,0,1,0,15.41,15.41A15.413,15.413,0,0,0,1215.42,6138.67Zm0,28.42a13.005,13.005,0,1,1,13-13.01A13,13,0,0,1,1215.42,6167.09Zm1.33-20.24a5.506,5.506,0,0,0,.75-0.48h-5.02c-1,0-3.79,1.14-3.79,3.8s2.89,3.24,3.94,3.2a1.22,1.22,0,0,0,.23,1.71c0.32,0.34.25,0.44-.12,0.44s-5.04.05-5.04,3.39,6.19,3.57,8.23,1.78a3.361,3.361,0,0,0,.02-5.4c-1.58-1.12-2.16-1.65-1.16-2.54s1.81-1.6,1.81-3.25a3.118,3.118,0,0,0-1.37-2.5A2.972,2.972,0,0,0,1216.75,6146.85Zm-0.78,11.89c0,1.44-1.22,2.14-3.3,2.14s-3.19-1.04-3.19-2.58,1.52-2.31,4.35-2.31C1214.6,6156.58,1215.97,6157.3,1215.97,6158.74Zm-3-6.03c-2.5,0-3.63-5.83-.69-5.83C1214.56,6146.79,1216.28,6152.71,1212.97,6152.71Zm8.27-4.41v-1.89h-0.98v1.89h-1.92v0.99h1.92v1.9h0.98v-1.9h1.89v-0.99h-1.89Z" transform="translate(-1200 -6138.66)"/>
</svg>
