<svg xmlns="http://www.w3.org/2000/svg" width="30.5" height="30.5" viewBox="0 0 30.5 30.5">
  <defs>
    <style>
      .cls-1 {
        fill: #b2b2b2;
        fill-rule: evenodd;
      }
    </style>
  </defs>
  <path id="linkedin" class="cls-1" d="M1260.25,6139a15.25,15.25,0,1,0,15.25,15.25A15.253,15.253,0,0,0,1260.25,6139Zm0,28.12a12.87,12.87,0,1,1,12.87-12.87A12.867,12.867,0,0,1,1260.25,6167.12Zm-7.62-5.25h2.86v-11.44h-2.86v11.44Zm11.44-11.44a5.229,5.229,0,0,0-3.81,1.91v-1.91h-2.86v11.44h2.86v-6.67a2.42,2.42,0,0,1,2.85-1.91c1.22,0.08,1.87,1.68,1.91,1.91v6.67l2.85,0.01v-7.92A3.566,3.566,0,0,0,1264.07,6150.43Zm-10.01-3.81a1.43,1.43,0,1,0,1.43,1.43A1.43,1.43,0,0,0,1254.06,6146.62Z" transform="translate(-1245 -6139)"/>
</svg>
