<svg xmlns="http://www.w3.org/2000/svg" width="31.5" height="31.5" viewBox="0 0 31.5 31.5">
  <defs>
    <style>
      .cls-1 {
        fill: #b2b2b2;
        fill-rule: evenodd;
      }
    </style>
  </defs>
  <path id="twitter" class="cls-1" d="M1170.5,6138.5a15.75,15.75,0,1,0,15.75,15.75A15.748,15.748,0,0,0,1170.5,6138.5Zm0,29.04a13.29,13.29,0,1,1,13.29-13.29A13.29,13.29,0,0,1,1170.5,6167.54Zm7.87-18.52a5.566,5.566,0,0,1-1.8.55,3.764,3.764,0,0,0,1.36-1.9,5.107,5.107,0,0,1-2.03.77h0a3.126,3.126,0,0,0-2.35-1.08,3.387,3.387,0,0,0-3.25,3.5,3.967,3.967,0,0,0,.08.78h0a9.14,9.14,0,0,1-6.88-3.63,3.664,3.664,0,0,0,.99,4.62,2.009,2.009,0,0,1-1.42-.39,3.347,3.347,0,0,0,2.5,3.42,2.461,2.461,0,0,1-1.35.11,3.116,3.116,0,0,0,2.9,2.37,5.067,5.067,0,0,1-4.5,1.45,9.273,9.273,0,0,0,5.09,1.55c5.24,0,9.31-4.57,9.09-10.22v-0.11A5.8,5.8,0,0,0,1178.37,6149.02Z" transform="translate(-1154.75 -6138.5)"/>
</svg>
