<svg xmlns="http://www.w3.org/2000/svg" width="13.625" height="11.91" viewBox="0 0 13.625 11.91">
  <defs>
    <style>
      .cls-1 {
        fill: #5a5a5a;
        fill-rule: evenodd;
      }
    </style>
  </defs>
  <path id="Forma_1" data-name="Forma 1" class="cls-1" d="M898.761,1273.13h-2.552v-1.28a0.85,0.85,0,0,0-.851-0.85h-5.1a0.85,0.85,0,0,0-.851.85v1.28h-2.552a0.85,0.85,0,0,0-.851.85v8.08a0.85,0.85,0,0,0,.851.85h11.91a0.85,0.85,0,0,0,.851-0.85v-8.08A0.85,0.85,0,0,0,898.761,1273.13Zm-8.082-.85h4.254v0.85h-4.254v-0.85Zm7.657,9.35h-11.06v-3.4h4.254v0.43h2.552v-0.43h4.254v3.4Zm0-4.68h-4.254v-0.42H891.53v0.42h-4.254v-2.55h11.06v2.55Z" transform="translate(-886 -1271)"/>
</svg>
